<?xml version="1.0" encoding="UTF-8" standalone="no"?>
<!-- Generator: Adobe Illustrator 18.0.0, SVG Export Plug-In . SVG Version: 6.00 Build 0)  -->

<svg
   xmlns:dc="http://purl.org/dc/elements/1.1/"
   xmlns:cc="http://creativecommons.org/ns#"
   xmlns:rdf="http://www.w3.org/1999/02/22-rdf-syntax-ns#"
   xmlns:svg="http://www.w3.org/2000/svg"
   xmlns="http://www.w3.org/2000/svg"
   xmlns:sodipodi="http://sodipodi.sourceforge.net/DTD/sodipodi-0.dtd"
   xmlns:inkscape="http://www.inkscape.org/namespaces/inkscape"
   version="1.1"
   id="Capa_1"
   x="0px"
   y="0px"
   viewBox="0 0 164.99999 165.00001"
   xml:space="preserve"
   inkscape:version="0.91 r13725"
   sodipodi:docname="medical.svg"
   width="165"
   height="165"><metadata
     id="metadata4274"><rdf:RDF><cc:Work
         rdf:about=""><dc:format>image/svg+xml</dc:format><dc:type
           rdf:resource="http://purl.org/dc/dcmitype/StillImage" /><dc:title></dc:title></cc:Work></rdf:RDF></metadata><defs
     id="defs4272" /><sodipodi:namedview
     pagecolor="#ffffff"
     bordercolor="#666666"
     borderopacity="1"
     objecttolerance="10"
     gridtolerance="10"
     guidetolerance="10"
     inkscape:pageopacity="0"
     inkscape:pageshadow="2"
     inkscape:window-width="1581"
     inkscape:window-height="905"
     id="namedview4270"
     showgrid="false"
     fit-margin-top="10"
     fit-margin-left="10"
     fit-margin-right="10"
     fit-margin-bottom="10"
     inkscape:zoom="1.1379172"
     inkscape:cx="98.741872"
     inkscape:cy="96.561175"
     inkscape:window-x="0"
     inkscape:window-y="0"
     inkscape:window-maximized="0"
     inkscape:current-layer="Capa_1" /><g
     id="g4240"
     transform="translate(7.6763732,-22.626631)" /><g
     id="g4242"
     transform="translate(7.6763732,-22.626631)" /><g
     id="g4244"
     transform="translate(7.6763732,-22.626631)" /><g
     id="g4246"
     transform="translate(7.6763732,-22.626631)" /><g
     id="g4248"
     transform="translate(7.6763732,-22.626631)" /><g
     id="g4250"
     transform="translate(7.6763732,-22.626631)" /><g
     id="g4252"
     transform="translate(7.6763732,-22.626631)" /><g
     id="g4254"
     transform="translate(7.6763732,-22.626631)" /><g
     id="g4256"
     transform="translate(7.6763732,-22.626631)" /><g
     id="g4258"
     transform="translate(7.6763732,-22.626631)" /><g
     id="g4260"
     transform="translate(7.6763732,-22.626631)" /><g
     id="g4262"
     transform="translate(7.6763732,-22.626631)" /><g
     id="g4264"
     transform="translate(7.6763732,-22.626631)" /><g
     id="g4266"
     transform="translate(7.6763732,-22.626631)" /><g
     id="g4268"
     transform="translate(7.6763732,-22.626631)" /><g
     id="g5096"
     transform="matrix(3.0054293,0,0,3.8532421,35.67693,33.946553)"
     style="fill:#0000ff"><g
       id="g5050"
       style="fill:#0000ff"><g
         id="g5052"
         style="fill:#0000ff"><path
           id="path5054"
           d="M 28.755,6.968 28.285,7.117 25.782,7.34 25.075,8.469 24.562,8.306 22.57,6.51 22.281,5.576 21.894,4.58 20.642,3.457 19.165,3.168 19.131,3.844 20.578,5.256 21.286,6.09 20.49,6.506 19.842,6.315 18.871,5.91 18.904,5.127 17.63,4.603 l -0.423,1.841 -1.284,0.291 0.127,1.027 1.673,0.322 0.289,-1.641 1.381,0.204 0.642,0.376 1.03,0 0.705,1.412 1.869,1.896 -0.137,0.737 -1.507,-0.192 -2.604,1.315 -1.875,2.249 -0.244,0.996 -0.673,0 -1.254,-0.578 -1.218,0.578 0.303,1.285 0.53,-0.611 0.932,-0.029 -0.065,1.154 0.772,0.226 0.771,0.866 1.259,-0.354 1.438,0.227 1.67,0.449 0.834,0.098 1.414,1.605 2.729,1.605 -1.765,3.372 -1.863,0.866 -0.707,1.927 -2.696,1.8 -0.287,1.038 C 26.288,29.3 31.415,23.109 31.415,15.707 31.413,12.474 30.433,9.465 28.755,6.968 Z"
           inkscape:connector-curvature="0"
           style="fill:#0000ff" /><path
           id="path5056"
           d="m 17.515,23.917 -1.144,-2.121 1.05,-2.188 -1.05,-0.314 -1.179,-1.184 -2.612,-0.586 -0.867,-1.814 0,1.077 -0.382,0 -2.251,-3.052 0,-2.507 L 7.43,8.545 4.81,9.012 3.045,9.012 2.157,8.43 3.29,7.532 2.16,7.793 c -1.362,2.326 -2.156,5.025 -2.156,7.916 0,8.673 7.031,15.707 15.705,15.707 0.668,0 1.323,-0.059 1.971,-0.137 l -0.164,-1.903 c 0,0 0.721,-2.826 0.721,-2.922 -10e-4,-0.097 -0.722,-2.537 -0.722,-2.537 z"
           inkscape:connector-curvature="0"
           style="fill:#0000ff" /><path
           id="path5058"
           d="M 5.84,5.065 8.63,4.676 9.916,3.971 11.363,4.388 13.675,4.26 14.467,3.015 15.622,3.205 18.427,2.942 19.2,2.09 20.29,1.362 21.832,1.594 22.394,1.509 C 20.363,0.553 18.103,0 15.708,0 10.833,0 6.474,2.222 3.596,5.711 l 0.008,0 L 5.84,5.065 Z M 16.372,1.562 17.976,0.679 19.006,1.274 17.515,2.409 16.091,2.552 15.45,2.136 16.372,1.562 Z m -4.751,0.129 0.708,0.295 0.927,-0.295 0.505,0.875 -2.14,0.562 -1.029,-0.602 c -0.001,0 1.006,-0.648 1.029,-0.835 z"
           inkscape:connector-curvature="0"
           style="fill:#0000ff" /></g></g><g
       id="g5060"
       style="fill:#0000ff" /><g
       id="g5062"
       style="fill:#0000ff" /><g
       id="g5064"
       style="fill:#0000ff" /><g
       id="g5066"
       style="fill:#0000ff" /><g
       id="g5068"
       style="fill:#0000ff" /><g
       id="g5070"
       style="fill:#0000ff" /><g
       id="g5072"
       style="fill:#0000ff" /><g
       id="g5074"
       style="fill:#0000ff" /><g
       id="g5076"
       style="fill:#0000ff" /><g
       id="g5078"
       style="fill:#0000ff" /><g
       id="g5080"
       style="fill:#0000ff" /><g
       id="g5082"
       style="fill:#0000ff" /><g
       id="g5084"
       style="fill:#0000ff" /><g
       id="g5086"
       style="fill:#0000ff" /><g
       id="g5088"
       style="fill:#0000ff" /></g><g
     id="g4234"
     transform="matrix(1.0060255,0,0,0.84559711,2.9228662,-33.172213)"><path
       d="m 145.38175,186.49816 -14.308,0 0,-72.9263 c 0,-13.619581 -8.255,-26.41195 -21.808,-34.191181 l 0,-5.541997 c 0.001,-13.208427 -13.146004,-23.954016 -29.308004,-23.954016 -16.162,0 -29.31,10.745589 -29.31,23.954833 l 0,5.541998 c -13.551,7.778413 -21.805,20.569964 -21.805,34.190363 l 0,72.9263 -14.308,0 c -4.143,0 -7.5000001,2.74485 -7.5000001,6.13053 0,3.38569 3.3570001,6.13053 7.5000001,6.13053 l 21.808,0 87.231004,0 21.808,0 c 4.143,0 7.5,-2.74484 7.5,-6.13053 0,-3.38568 -3.357,-6.13053 -7.5,-6.13053 z m -101.539004,0 0,-72.9263 c 0,-10.47258 6.923,-20.257717 18.066,-25.535693 2.314,-1.096138 3.739,-3.117578 3.739,-5.304133 l 0,-8.892535 c 0,-6.44768 6.419,-11.693777 14.31,-11.693777 7.89,0 14.309,5.24528 14.309,11.693777 l 0,8.892535 c 0,2.186555 1.425,4.207995 3.739,5.304133 11.146004,5.278793 18.068004,15.063933 18.068004,25.535693 l 0,72.9263 -72.231004,0 z"
       id="path4236"
       inkscape:connector-curvature="0" /></g></svg>